<?xml version="1.0" encoding="UTF-8"?>
<svg xmlns="http://www.w3.org/2000/svg" xmlns:xlink="http://www.w3.org/1999/xlink" viewBox="0 0 250 250" width="250px" height="250px">
<g id="surface173646000">
<path style=" stroke:none;fill-rule:nonzero;fill:rgb(20%,20%,20%);fill-opacity:1;" d="M 84.257812 0.0585938 C 83.617188 0.15625 82.980469 0.371094 82.390625 0.730469 C 80.03125 2.171875 79.292969 5.253906 80.730469 7.605469 L 88.933594 21.015625 C 74.183594 30.917969 63.6875 46.675781 60.847656 65 L 189.152344 65 C 186.3125 46.675781 175.816406 30.917969 161.066406 21.015625 L 169.269531 7.605469 C 170.707031 5.253906 169.96875 2.171875 167.609375 0.730469 C 165.246094 -0.707031 162.171875 0.0390625 160.734375 2.390625 L 152.363281 16.074219 C 144.046875 12.195312 134.789062 10 125 10 C 115.210938 10 105.953125 12.195312 97.636719 16.074219 L 89.265625 2.390625 C 88.183594 0.625 86.183594 -0.230469 84.257812 0.0585938 Z M 40 25 C 28.96875 25 20 33.96875 20 45 C 20 56.03125 28.96875 65 40 65 L 50.742188 65 C 52.792969 49.730469 59.441406 35.933594 69.257812 25 Z M 97.5 35 C 101.640625 35 105 38.359375 105 42.5 C 105 46.640625 101.640625 50 97.5 50 C 93.359375 50 90 46.640625 90 42.5 C 90 38.359375 93.359375 35 97.5 35 Z M 152.5 35 C 156.640625 35 160 38.359375 160 42.5 C 160 46.640625 156.640625 50 152.5 50 C 148.359375 50 145 46.640625 145 42.5 C 145 38.359375 148.359375 35 152.5 35 Z M 20 67.304688 L 20 195 C 20 208.785156 31.214844 220 45 220 L 66.394531 220 L 64.246094 224.558594 C 60.304688 232.945312 63.265625 243.0625 70.996094 247.585938 C 73.691406 249.164062 76.753906 250 79.851562 250 C 86.699219 250 92.984375 246.03125 95.878906 239.882812 L 105.183594 220 L 144.8125 220 L 154.101562 239.851562 C 157.011719 246.027344 163.300781 250 170.144531 250 C 173.246094 250 176.308594 249.164062 179.003906 247.585938 C 186.734375 243.0625 189.703125 232.945312 185.75 224.558594 L 183.601562 220 L 195 220 L 195 120 C 195 117.238281 197.234375 115 200 115 L 220 115 C 231.03125 115 240 106.03125 240 95 C 240 83.96875 231.03125 75 220 75 L 40 75 C 32.308594 75 25.316406 72.074219 20 67.304688 Z M 125 100 C 127.765625 100 130 102.238281 130 105 L 130 115.714844 C 138.605469 117.949219 145 125.710938 145 135 C 145 140.488281 142.773438 145.46875 139.179688 149.082031 L 176.707031 228.820312 C 178.402344 232.417969 177.378906 236.960938 173.953125 238.964844 C 172.746094 239.675781 171.429688 240 170.144531 240 C 167.332031 240 164.445312 238.332031 163.164062 235.617188 L 155.859375 220 L 135.652344 176.816406 C 131.425781 167.777344 118.574219 167.777344 114.34375 176.816406 L 94.140625 220 L 86.835938 235.617188 C 85.554688 238.332031 82.667969 240 79.851562 240 C 78.570312 240 77.253906 239.675781 76.042969 238.964844 C 72.613281 236.960938 71.601562 232.421875 73.289062 228.828125 L 110.808594 149.082031 C 107.21875 145.460938 105 140.488281 105 135 C 105 125.710938 111.394531 117.949219 120 115.714844 L 120 105 C 120 102.238281 122.234375 100 125 100 Z M 240 117.304688 C 234.683594 122.074219 227.691406 125 220 125 L 205 125 L 205 245 C 205 247.761719 207.234375 250 210 250 L 215 250 C 228.785156 250 240 238.785156 240 225 Z M 125 125 C 119.476562 125 115 129.476562 115 135 C 115 140.523438 119.476562 145 125 145 C 130.523438 145 135 140.523438 135 135 C 135 129.476562 130.523438 125 125 125 Z M 125 125 "/>
</g>
</svg>
