<?xml version="1.0" encoding="UTF-8"?>
<svg xmlns="http://www.w3.org/2000/svg" xmlns:xlink="http://www.w3.org/1999/xlink" viewBox="0 0 100 100" width="100px" height="100px">
<g id="surface173646061">
<path style=" stroke:none;fill-rule:nonzero;fill:rgb(20%,20%,20%);fill-opacity:1;" d="M 33.703125 0.0234375 C 33.445312 0.0625 33.191406 0.148438 32.957031 0.292969 C 32.011719 0.867188 31.71875 2.101562 32.292969 3.042969 L 35.574219 8.40625 C 29.671875 12.367188 25.476562 18.671875 24.339844 26 L 75.660156 26 C 74.527344 18.671875 70.328125 12.367188 64.425781 8.40625 L 67.707031 3.042969 C 68.28125 2.101562 67.988281 0.867188 67.042969 0.292969 C 66.097656 -0.28125 64.867188 0.015625 64.292969 0.957031 L 60.945312 6.429688 C 57.617188 4.878906 53.914062 4 50 4 C 46.085938 4 42.382812 4.878906 39.054688 6.429688 L 35.707031 0.957031 C 35.273438 0.25 34.472656 -0.09375 33.703125 0.0234375 Z M 16 10 C 11.589844 10 8 13.589844 8 18 C 8 22.410156 11.589844 26 16 26 L 20.296875 26 C 21.117188 19.890625 23.777344 14.375 27.703125 10 Z M 39 14 C 40.65625 14 42 15.34375 42 17 C 42 18.65625 40.65625 20 39 20 C 37.34375 20 36 18.65625 36 17 C 36 15.34375 37.34375 14 39 14 Z M 61 14 C 62.65625 14 64 15.34375 64 17 C 64 18.65625 62.65625 20 61 20 C 59.34375 20 58 18.65625 58 17 C 58 15.34375 59.34375 14 61 14 Z M 8 26.921875 L 8 78 C 8 83.515625 12.484375 88 18 88 L 26.558594 88 L 25.699219 89.824219 C 24.121094 93.179688 25.304688 97.226562 28.398438 99.035156 C 29.476562 99.664062 30.703125 100 31.941406 100 C 34.679688 100 37.195312 98.414062 38.351562 95.953125 L 42.074219 88 L 57.925781 88 L 61.640625 95.941406 C 62.804688 98.410156 65.320312 100 68.058594 100 C 69.296875 100 70.523438 99.664062 71.601562 99.035156 C 74.695312 97.226562 75.878906 93.179688 74.300781 89.824219 L 73.441406 88 L 78 88 L 78 48 C 78 46.894531 78.894531 46 80 46 L 88 46 C 92.410156 46 96 42.410156 96 38 C 96 33.589844 92.410156 30 88 30 L 16 30 C 12.925781 30 10.125 28.828125 8 26.921875 Z M 50 40 C 51.105469 40 52 40.894531 52 42 L 52 46.285156 C 55.441406 47.179688 58 50.285156 58 54 C 58 56.195312 57.109375 58.1875 55.671875 59.632812 L 70.683594 91.527344 C 71.363281 92.96875 70.953125 94.785156 69.582031 95.585938 C 69.097656 95.871094 68.574219 96 68.058594 96 C 66.933594 96 65.777344 95.332031 65.265625 94.246094 L 62.34375 88 L 54.261719 70.726562 C 52.570312 67.109375 47.429688 67.109375 45.738281 70.726562 L 37.65625 88 L 34.734375 94.246094 C 34.222656 95.332031 33.066406 96 31.941406 96 C 31.425781 96 30.902344 95.871094 30.417969 95.585938 C 29.046875 94.785156 28.640625 92.96875 29.316406 91.53125 L 44.324219 59.632812 C 42.886719 58.183594 42 56.195312 42 54 C 42 50.285156 44.558594 47.179688 48 46.285156 L 48 42 C 48 40.894531 48.894531 40 50 40 Z M 96 46.921875 C 93.875 48.828125 91.074219 50 88 50 L 82 50 L 82 98 C 82 99.105469 82.894531 100 84 100 L 86 100 C 91.515625 100 96 95.515625 96 90 Z M 50 50 C 47.789062 50 46 51.789062 46 54 C 46 56.210938 47.789062 58 50 58 C 52.210938 58 54 56.210938 54 54 C 54 51.789062 52.210938 50 50 50 Z M 50 50 "/>
</g>
</svg>
