<?xml version="1.0" encoding="UTF-8"?>
<svg xmlns="http://www.w3.org/2000/svg" xmlns:xlink="http://www.w3.org/1999/xlink" viewBox="0 0 150 150" width="150px" height="150px">
<g id="surface173174811">
<path style=" stroke:none;fill-rule:nonzero;fill:rgb(20%,20%,20%);fill-opacity:1;" d="M 50.554688 0.0351562 C 50.167969 0.09375 49.789062 0.222656 49.433594 0.4375 C 48.019531 1.304688 47.574219 3.152344 48.4375 4.5625 L 53.359375 12.609375 C 44.511719 18.550781 38.214844 28.003906 36.507812 39 L 113.492188 39 C 111.789062 28.003906 105.488281 18.550781 96.640625 12.609375 L 101.5625 4.5625 C 102.425781 3.152344 101.980469 1.304688 100.566406 0.4375 C 99.148438 -0.425781 97.304688 0.0234375 96.441406 1.433594 L 91.417969 9.644531 C 86.429688 7.316406 80.875 6 75 6 C 69.125 6 63.570312 7.316406 58.582031 9.644531 L 53.558594 1.433594 C 52.910156 0.375 51.710938 -0.136719 50.554688 0.0351562 Z M 24 15 C 17.382812 15 12 20.382812 12 27 C 12 33.617188 17.382812 39 24 39 L 30.445312 39 C 31.675781 29.839844 35.664062 21.5625 41.554688 15 Z M 58.5 21 C 60.984375 21 63 23.015625 63 25.5 C 63 27.984375 60.984375 30 58.5 30 C 56.015625 30 54 27.984375 54 25.5 C 54 23.015625 56.015625 21 58.5 21 Z M 91.5 21 C 93.984375 21 96 23.015625 96 25.5 C 96 27.984375 93.984375 30 91.5 30 C 89.015625 30 87 27.984375 87 25.5 C 87 23.015625 89.015625 21 91.5 21 Z M 12 40.382812 L 12 117 C 12 125.269531 18.730469 132 27 132 L 39.835938 132 L 38.546875 134.734375 C 36.183594 139.765625 37.960938 145.835938 42.597656 148.550781 C 44.214844 149.496094 46.050781 150 47.910156 150 C 52.019531 150 55.789062 147.621094 57.527344 143.929688 L 63.109375 132 L 86.886719 132 L 92.460938 143.910156 C 94.207031 147.617188 97.980469 150 102.085938 150 C 103.949219 150 105.785156 149.496094 107.402344 148.550781 C 112.039062 145.835938 113.820312 139.765625 111.449219 134.734375 L 110.160156 132 L 117 132 L 117 72 C 117 70.34375 118.339844 69 120 69 L 132 69 C 138.617188 69 144 63.617188 144 57 C 144 50.382812 138.617188 45 132 45 L 24 45 C 19.386719 45 15.1875 43.246094 12 40.382812 Z M 75 60 C 76.660156 60 78 61.34375 78 63 L 78 69.429688 C 83.164062 70.769531 87 75.425781 87 81 C 87 84.292969 85.664062 87.28125 83.507812 89.449219 L 106.023438 137.292969 C 107.042969 139.449219 106.429688 142.175781 104.371094 143.378906 C 103.648438 143.804688 102.859375 144 102.085938 144 C 100.398438 144 98.667969 143 97.898438 141.371094 L 93.515625 132 L 81.390625 106.089844 C 78.855469 100.664062 71.144531 100.664062 68.605469 106.089844 L 56.484375 132 L 52.101562 141.371094 C 51.332031 143 49.601562 144 47.910156 144 C 47.140625 144 46.351562 143.804688 45.625 143.378906 C 43.570312 142.175781 42.960938 139.453125 43.972656 137.296875 L 66.484375 89.449219 C 64.332031 87.277344 63 84.292969 63 81 C 63 75.425781 66.835938 70.769531 72 69.429688 L 72 63 C 72 61.34375 73.339844 60 75 60 Z M 144 70.382812 C 140.8125 73.246094 136.613281 75 132 75 L 123 75 L 123 147 C 123 148.65625 124.339844 150 126 150 L 129 150 C 137.269531 150 144 143.269531 144 135 Z M 75 75 C 71.6875 75 69 77.6875 69 81 C 69 84.3125 71.6875 87 75 87 C 78.3125 87 81 84.3125 81 81 C 81 77.6875 78.3125 75 75 75 Z M 75 75 "/>
</g>
</svg>
