<?xml version="1.0" encoding="UTF-8"?>
<svg xmlns="http://www.w3.org/2000/svg" xmlns:xlink="http://www.w3.org/1999/xlink" viewBox="0 0 240 240" width="240px" height="240px">
<defs>
<linearGradient id="linear0" gradientUnits="userSpaceOnUse" x1="135.449997" y1="155.409164" x2="135.449997" y2="26.588329" gradientTransform="matrix(1.395349,0,0,1.395349,0,0)">
<stop offset="0" style="stop-color:rgb(20%,20%,20%);stop-opacity:1;"/>
<stop offset="1" style="stop-color:rgb(80.000001%,80.000001%,80.000001%);stop-opacity:1;"/>
</linearGradient>
</defs>
<g id="surface173367567">
<path style=" stroke:none;fill-rule:nonzero;fill:url(#linear0);" d="M 170.878906 21.246094 C 171.820312 21.703125 199.320312 34.824219 212.75 41.234375 C 217.183594 43.351562 220 47.820312 220 52.730469 L 220 187.03125 C 220 191.933594 217.203125 196.398438 212.785156 198.523438 C 200.046875 204.664062 174.730469 216.855469 173.046875 217.65625 C 171.804688 218.246094 168.546875 220 165.90625 220 C 162.515625 220 160.238281 218.421875 158.003906 216.351562 L 170 178.554688 L 170 28.574219 L 158.730469 22.898438 C 161.140625 20.546875 164.480469 20 166.453125 20 C 168.265625 20 169.738281 20.691406 170.878906 21.246094 Z M 170.878906 21.246094 "/>
<path style=" stroke:none;fill-rule:nonzero;fill:rgb(0%,0%,0%);fill-opacity:1;" d="M 45 169.480469 L 170 74.363281 L 170 29.148438 C 170 22.65625 161.691406 20.109375 158.316406 23.230469 C 155.039062 26.25 23.289062 146.195312 23.289062 146.195312 C 18.789062 150.34375 19.046875 157.53125 23.824219 161.355469 C 23.824219 161.355469 30.445312 167.515625 32.839844 169.226562 C 36.519531 171.851562 41.355469 172.148438 45 169.480469 Z M 45 169.480469 "/>
<path style=" stroke:none;fill-rule:nonzero;fill:rgb(20%,20%,20%);fill-opacity:1;" d="M 45 70.519531 L 170 165.789062 L 170 209.644531 C 170 215.636719 162.898438 220.609375 158.003906 216.351562 L 23.289062 93.804688 C 18.789062 89.65625 19.046875 82.46875 23.824219 78.644531 C 23.824219 78.644531 30.445312 72.484375 32.839844 70.773438 C 36.519531 68.148438 41.355469 67.851562 45 70.519531 Z M 45 70.519531 "/>
</g>
</svg>
