<?xml version="1.0" encoding="UTF-8"?>
<svg xmlns="http://www.w3.org/2000/svg" xmlns:xlink="http://www.w3.org/1999/xlink" viewBox="0 0 48 48" width="48px" height="48px">
<defs>
<linearGradient id="linear0" gradientUnits="userSpaceOnUse" x1="135.449997" y1="155.409164" x2="135.449997" y2="26.588329" gradientTransform="matrix(0.27907,0,0,0.27907,0,0)">
<stop offset="0" style="stop-color:rgb(20%,20%,20%);stop-opacity:1;"/>
<stop offset="1" style="stop-color:rgb(80.000001%,80.000001%,80.000001%);stop-opacity:1;"/>
</linearGradient>
</defs>
<g id="surface173367572">
<path style=" stroke:none;fill-rule:nonzero;fill:url(#linear0);" d="M 34.175781 4.25 C 34.363281 4.339844 39.863281 6.964844 42.550781 8.246094 C 43.4375 8.671875 44 9.5625 44 10.546875 L 44 37.40625 C 44 38.386719 43.441406 39.28125 42.558594 39.703125 C 40.007812 40.933594 34.945312 43.371094 34.609375 43.53125 C 34.359375 43.648438 33.710938 44 33.179688 44 C 32.503906 44 32.046875 43.683594 31.601562 43.269531 L 34 35.710938 L 34 5.714844 L 31.746094 4.578125 C 32.226562 4.109375 32.894531 4 33.289062 4 C 33.652344 4 33.949219 4.136719 34.175781 4.25 Z M 34.175781 4.25 "/>
<path style=" stroke:none;fill-rule:nonzero;fill:rgb(0%,0%,0%);fill-opacity:1;" d="M 9 33.894531 L 34 14.871094 L 34 5.828125 C 34 4.53125 32.339844 4.023438 31.664062 4.644531 C 31.007812 5.25 4.65625 29.238281 4.65625 29.238281 C 3.757812 30.070312 3.808594 31.507812 4.765625 32.269531 C 4.765625 32.269531 6.089844 33.503906 6.566406 33.84375 C 7.304688 34.371094 8.269531 34.429688 9 33.894531 Z M 9 33.894531 "/>
<path style=" stroke:none;fill-rule:nonzero;fill:rgb(20%,20%,20%);fill-opacity:1;" d="M 9 14.105469 L 34 33.15625 L 34 41.929688 C 34 43.128906 32.578125 44.121094 31.601562 43.269531 L 4.65625 18.761719 C 3.757812 17.929688 3.808594 16.492188 4.765625 15.730469 C 4.765625 15.730469 6.089844 14.496094 6.566406 14.15625 C 7.304688 13.628906 8.269531 13.570312 9 14.105469 Z M 9 14.105469 "/>
</g>
</svg>
