<?xml version="1.0" encoding="UTF-8"?>
<svg xmlns="http://www.w3.org/2000/svg" xmlns:xlink="http://www.w3.org/1999/xlink" viewBox="0 0 96 96" width="96px" height="96px">
<defs>
<linearGradient id="linear0" gradientUnits="userSpaceOnUse" x1="135.449997" y1="155.409164" x2="135.449997" y2="26.588329" gradientTransform="matrix(0.55814,0,0,0.55814,0,0)">
<stop offset="0" style="stop-color:rgb(20%,20%,20%);stop-opacity:1;"/>
<stop offset="1" style="stop-color:rgb(80.000001%,80.000001%,80.000001%);stop-opacity:1;"/>
</linearGradient>
</defs>
<g id="surface173367577">
<path style=" stroke:none;fill-rule:nonzero;fill:url(#linear0);" d="M 68.351562 8.496094 C 68.726562 8.683594 79.726562 13.929688 85.101562 16.492188 C 86.875 17.339844 88 19.128906 88 21.09375 L 88 74.8125 C 88 76.773438 86.882812 78.558594 85.113281 79.410156 C 80.019531 81.867188 69.890625 86.742188 69.21875 87.0625 C 68.722656 87.296875 67.417969 88 66.363281 88 C 65.007812 88 64.097656 87.367188 63.203125 86.539062 L 68 71.421875 L 68 11.429688 L 63.492188 9.160156 C 64.457031 8.21875 65.792969 8 66.582031 8 C 67.304688 8 67.894531 8.277344 68.351562 8.496094 Z M 68.351562 8.496094 "/>
<path style=" stroke:none;fill-rule:nonzero;fill:rgb(0%,0%,0%);fill-opacity:1;" d="M 18 67.792969 L 68 29.746094 L 68 11.660156 C 68 9.0625 64.675781 8.042969 63.324219 9.292969 C 62.015625 10.5 9.316406 58.476562 9.316406 58.476562 C 7.515625 60.136719 7.617188 63.011719 9.53125 64.542969 C 9.53125 64.542969 12.179688 67.007812 13.136719 67.691406 C 14.609375 68.738281 16.542969 68.859375 18 67.792969 Z M 18 67.792969 "/>
<path style=" stroke:none;fill-rule:nonzero;fill:rgb(20%,20%,20%);fill-opacity:1;" d="M 18 28.207031 L 68 66.316406 L 68 83.859375 C 68 86.253906 65.160156 88.242188 63.203125 86.539062 L 9.316406 37.523438 C 7.515625 35.863281 7.617188 32.988281 9.53125 31.457031 C 9.53125 31.457031 12.179688 28.992188 13.136719 28.308594 C 14.609375 27.261719 16.542969 27.140625 18 28.207031 Z M 18 28.207031 "/>
</g>
</svg>
